HIERARCHY
ROOT hip
{
  OFFSET 0 0 0
  CHANNELS 6 Xposition Yposition Zposition Zrotation Yrotation Xrotation
  JOINT abdomen
  {
    OFFSET 0 20.6881 -0.73152
    CHANNELS 3 Zrotation Xrotation Yrotation
    JOINT chest
    {
      OFFSET 0 11.7043 -0.48768
      CHANNELS 3 Zrotation Xrotation Yrotation
      JOINT neck
      {
        OFFSET 0 22.1894 -2.19456
        CHANNELS 3 Zrotation Xrotation Yrotation
        JOINT head
        {
          OFFSET -0.24384 7.07133 1.2192
          CHANNELS 3 Zrotation Xrotation Yrotation
          JOINT leftEye
          {
            OFFSET 4.14528 8.04674 8.04672
            CHANNELS 3 Zrotation Xrotation Yrotation
            End Site
            {
              OFFSET 1 0 0
            }
          }
          JOINT rightEye
          {
            OFFSET -3.6576 8.04674 8.04672
            CHANNELS 3 Zrotation Xrotation Yrotation
            End Site
            {
              OFFSET 1 0 0
            }
          }
        }
      }
      JOINT rCollar
      {
        OFFSET -2.68224 19.2634 -4.8768
        CHANNELS 3 Zrotation Xrotation Yrotation
        JOINT rShldr
        {
          OFFSET -8.77824 -1.95073 1.46304
          CHANNELS 3 Zrotation Xrotation Yrotation
          JOINT rForeArm
          {
            OFFSET -28.1742 -1.7115 0.48768
            CHANNELS 3 Zrotation Xrotation Yrotation
            JOINT rHand
            {
              OFFSET -22.5879 0.773209 7.07136
              CHANNELS 3 Zrotation Xrotation Yrotation
              JOINT rThumb1
              {
                OFFSET -1.2192 -0.487915 3.41376
                CHANNELS 3 Zrotation Xrotation Yrotation
                JOINT rThumb2
                {
                  OFFSET -3.37035 -0.52449 3.41376
                  CHANNELS 3 Zrotation Xrotation Yrotation
                  End Site
                  {
                    OFFSET -1.78271 -1.18214 1.43049
                  }
                }
              }
              JOINT rIndex1
              {
                OFFSET -7.75947 0.938293 5.60832
                CHANNELS 3 Zrotation Xrotation Yrotation
                JOINT rIndex2
                {
                  OFFSET -2.54057 -0.884171 1.56538
                  CHANNELS 3 Zrotation Xrotation Yrotation
                  End Site
                  {
                    OFFSET -1.62519 -0.234802 1.16502
                  }
                }
              }
              JOINT rMid1
              {
                OFFSET -8.24714 1.18213 3.41376
                CHANNELS 3 Zrotation Xrotation Yrotation
                JOINT rMid2
                {
                  OFFSET -3.10165 -0.590103 1.0647
                  CHANNELS 3 Zrotation Xrotation Yrotation
                  End Site
                  {
                    OFFSET -2.48547 -0.328903 0.83742
                  }
                }
              }
              JOINT rRing1
              {
                OFFSET -8.82822 0.546677 1.51678
                CHANNELS 3 Zrotation Xrotation Yrotation
                JOINT rRing2
                {
                  OFFSET -2.60934 -0.819778 -0.0198488
                  CHANNELS 3 Zrotation Xrotation Yrotation
                  End Site
                  {
                    OFFSET -2.33842 -0.294052 0.168128
                  }
                }
              }
              JOINT rPinky1
              {
                OFFSET -8.27202 -0.0477905 -0.4584
                CHANNELS 3 Zrotation Xrotation Yrotation
                JOINT rPinky2
                {
                  OFFSET -1.82734 -0.647385 -0.700984
                  CHANNELS 3 Zrotation Xrotation Yrotation
                  End Site
                  {
                    OFFSET -1.69225 -0.51767 -0.607171
                  }
                }
              }
            }
          }
        }
      }
      JOINT lCollar
      {
        OFFSET 2.68224 19.2634 -4.8768
        CHANNELS 3 Zrotation Xrotation Yrotation
        JOINT lShldr
        {
          OFFSET 8.77824 -1.95073 1.46304
          CHANNELS 3 Zrotation Xrotation Yrotation
          JOINT lForeArm
          {
            OFFSET 28.1742 -1.7115 0.48768
            CHANNELS 3 Zrotation Xrotation Yrotation
            JOINT lHand
            {
              OFFSET 22.5879 0.773209 7.07136
              CHANNELS 3 Zrotation Xrotation Yrotation
              JOINT lThumb1
              {
                OFFSET 1.2192 -0.487915 3.41376
                CHANNELS 3 Zrotation Xrotation Yrotation
                JOINT lThumb2
                {
                  OFFSET 3.37035 -0.52449 3.41376
                  CHANNELS 3 Zrotation Xrotation Yrotation
                  End Site
                  {
                    OFFSET 1.78271 -1.18214 1.43049
                  }
                }
              }
              JOINT lIndex1
              {
                OFFSET 7.75947 0.938293 5.60832
                CHANNELS 3 Zrotation Xrotation Yrotation
                JOINT lIndex2
                {
                  OFFSET 2.54057 -0.884171 1.56538
                  CHANNELS 3 Zrotation Xrotation Yrotation
                  End Site
                  {
                    OFFSET 1.62519 -0.234802 1.16502
                  }
                }
              }
              JOINT lMid1
              {
                OFFSET 8.24714 1.18213 3.41376
                CHANNELS 3 Zrotation Xrotation Yrotation
                JOINT lMid2
                {
                  OFFSET 3.10165 -0.590103 1.0647
                  CHANNELS 3 Zrotation Xrotation Yrotation
                  End Site
                  {
                    OFFSET 2.48547 -0.328903 0.83742
                  }
                }
              }
              JOINT lRing1
              {
                OFFSET 8.82822 0.546677 1.51678
                CHANNELS 3 Zrotation Xrotation Yrotation
                JOINT lRing2
                {
                  OFFSET 2.60934 -0.819778 -0.0198488
                  CHANNELS 3 Zrotation Xrotation Yrotation
                  End Site
                  {
                    OFFSET 2.33842 -0.294052 0.168128
                  }
                }
              }
              JOINT lPinky1
              {
                OFFSET 8.27202 -0.0477905 -0.4584
                CHANNELS 3 Zrotation Xrotation Yrotation
                JOINT lPinky2
                {
                  OFFSET 1.82734 -0.647385 -0.700984
                  CHANNELS 3 Zrotation Xrotation Yrotation
                  End Site
                  {
                    OFFSET 1.69225 -0.51767 -0.607171
                  }
                }
              }
            }
          }
        }
      }
    }
  }
  JOINT rButtock
  {
    OFFSET -8.77824 4.35084 1.2192
    CHANNELS 3 Zrotation Xrotation Yrotation
    JOINT rThigh
    {
      OFFSET 0 -1.70687 -2.19456
      CHANNELS 3 Zrotation Xrotation Yrotation
      JOINT rShin
      {
        OFFSET 0 -36.8199 0.73152
        CHANNELS 3 Zrotation Xrotation Yrotation
        JOINT rFoot
        {
          OFFSET 0.73152 -45.1104 -5.12064
          CHANNELS 3 Zrotation Xrotation Yrotation
          End Site
          {
            OFFSET -1.1221 -3.69964 12.103
          }
        }
      }
    }
  }
  JOINT lButtock
  {
    OFFSET 8.77824 4.35084 1.2192
    CHANNELS 3 Zrotation Xrotation Yrotation
    JOINT lThigh
    {
      OFFSET 0 -1.70687 -2.19456
      CHANNELS 3 Zrotation Xrotation Yrotation
      JOINT lShin
      {
        OFFSET 0 -36.8199 0.73152
        CHANNELS 3 Zrotation Xrotation Yrotation
        JOINT lFoot
        {
          OFFSET -0.73152 -45.1104 -5.12064
          CHANNELS 3 Zrotation Xrotation Yrotation
          End Site
          {
            OFFSET 1.1221 -3.69964 12.103
          }
        }
      }
    }
  }
}
MOTION
Frames:	8
Frame Time:	0.03333
0.0 0.0 0.0 0.0 0.0 0.0 0.0 0.0 0.0 0.0 0.0 0.0 0.0 0.0 0.0 0.0 0.0 0.0 0.0 0.0 0.0 0.0 0.0 0.0 0.0 0.0 0.0 0.0 0.0 0.0 0.0 0.0 0.0 0.0 0.0 0.0 0.0 0.0 0.0 0.0 0.0 0.0 0.0 0.0 0.0 0.0 0.0 0.0 0.0 0.0 0.0 0.0 0.0 0.0 0.0 0.0 0.0 0.0 0.0 0.0 0.0 0.0 0.0 0.0 0.0 0.0 0.0 0.0 0.0 0.0 0.0 0.0 0.0 0.0 0.0 0.0 0.0 0.0 0.0 0.0 0.0 0.0 0.0 0.0 0.0 0.0 0.0 0.0 0.0 0.0 0.0 0.0 0.0 0.0 0.0 0.0 0.0 0.0 0.0 0.0 0.0 0.0 0.0 0.0 0.0 0.0 0.0 0.0 0.0 0.0 0.0 0.0 0.0 0.0 0.0 0.0 0.0 0.0 0.0 0.0 0.0 0.0 0.0 0.0 0.0 0.0 0.0 0.0 0.0 0.0 0.0 0.0
-7.3036 66.0153 -160.6693 3.947338 59.193399 5.714487 -5.258566 14.421633 -0.0 8.259802 -10.839947 -19.231393 -14.341346 37.19843 -103.202246 40.609285 23.076424 39.017069 -0.003632 -0.0 0.000111 0.002092 0.0 0.000349 -44.913802 -86.288184 -66.522186 -91.952906 -38.825556 -89.151715 0.796381 -1.791944 -66.04289 168.15 -26.017789 142.216324 -154.277075 7.69111 87.508031 26.036629 -54.163564 26.859975 73.422745 -73.56958 26.567287 -70.749127 53.601677 58.946101 5.89392 -18.351885 -2.542808 -88.738848 64.072612 80.399182 0.004426 0.876107 0.275949 -156.437087 -20.595881 174.268343 -136.277688 -10.956215 -133.618236 -25.253836 -40.359355 -26.99585 157.797269 -22.11538 -165.46757 -73.050653 80.5436 127.14561 146.090764 -10.491231 -137.229202 -71.969539 -63.935918 -62.242686 6.581267 6.344659 -1.366692 131.225996 -30.905341 -113.032908 39.688856 37.280188 -30.591342 -13.307199 -9.620014 2.990289 10.975868 25.789721 -7.640931 175.12528 -39.383276 -143.322451 145.120339 0.185299 179.186931 -7.495238 75.574247 -4.276823 139.224857 -4.397096 136.390855 84.840954 -52.029934 84.548223 0.003843 -3.6e-05 0.001922 -21.838838 -46.425924 -0.0 -13.297899 54.706815 18.604337 149.723857 -10.26971 -4.892693 -0.009604 0.001025 -0.007203 22.588527 -17.370787 54.335437 54.131045 38.840857 17.179463 143.364524 -57.986717 46.905784
-7.4262 65.9983 -160.7263 4.023013 58.628119 5.417438 -5.179978 14.347279 1.077263 7.994215 -11.127597 -20.796112 -15.32846 32.570963 -76.347726 41.278388 6.274159 17.81282 -0.002426 -0.0 5e-06 -0.002401 -0.0 0.003055 -0.01771 0.107326 0.023037 68.953382 23.456999 -7.111883 170.610971 15.458062 119.361611 174.838991 -6.449743 144.577899 -164.697965 -2.372298 89.584588 18.002241 -57.823705 20.083207 -166.821211 -43.974034 122.061314 1.304487 22.611822 -3.836063 -0.287881 0.832538 0.160315 3.439575 -0.60463 -0.104867 0.004152 1.770765 0.557352 -156.506052 -20.592398 174.272001 8.36674 26.426979 7.362444 -159.178392 52.346257 -149.731606 155.459766 -3.228196 -161.776421 -161.523897 75.753996 -141.6932 -6.79978 52.423083 -21.126331 10.754521 52.664267 -6.328786 169.150057 -6.830003 -89.916165 111.425138 12.480981 -49.978759 64.086146 43.041332 -52.300645 -153.224601 -55.320703 -94.684738 170.281966 -36.723126 -145.340717 2.340136 14.678267 -3.009471 145.112993 -0.62697 178.930793 -11.970176 29.420754 5.661144 112.781361 -40.022904 110.810139 24.527274 -40.679586 26.580768 -0.002809 -0.000713 -0.001404 -20.881903 -46.605732 -27.70029 -42.259522 49.300082 139.044478 -25.320436 8.667486 -60.191595 179.986145 75.749779 0.012225 -143.678797 49.486189 162.786063 10.227239 -66.329895 77.324622 74.758085 -24.739367 145.708587
-7.6047 65.8464 -160.8263 3.795736 58.143 4.932661 -3.96572 9.794547 -157.828104 -4.130796 8.646022 137.611938 -15.281475 33.844479 -82.38175 41.875659 10.160813 22.457398 0.003092 -0.0 -0.001092 0.003092 -0.0 -0.001092 2.530212 -18.881225 -3.793604 -113.457803 1.417906 -158.302522 5.877724 10.683263 -61.961429 168.944789 -21.427849 143.108678 -174.088167 -11.753527 89.876037 -23.547877 -38.04994 1.793608 -19.171876 24.114165 13.380818 -163.280652 -12.017032 110.586417 -153.319969 13.629013 138.862962 -5.029207 21.265544 4.803738 -0.022941 -1.724166 -0.543071 -156.385468 -27.67033 175.094948 -162.157393 71.591409 -150.941152 10.223446 26.412678 4.645993 -0.022961 -0.138675 0.030677 -76.151315 2.994068 -3.076659 8.325049 4.28949 -26.328253 2.477155 27.233083 -3.059475 166.632512 -4.304229 -89.772205 121.20999 10.767585 -56.933688 -159.640918 -69.973158 -102.39619 12.731238 38.93951 -8.44147 0.058176 0.167746 -0.032548 -91.951523 -78.577578 -62.951525 -0.000851 0.063912 -0.019574 -8.442783 19.535052 -2.744846 -16.817965 58.946186 -12.655781 -37.82038 80.372582 2.384815 -179.99873 75.749162 0.0 165.573336 25.197701 -80.8556 -57.119738 -25.075796 51.926022 151.336113 23.730343 -47.268791 0.001829 -0.001774 0.002744 23.053877 -16.851365 55.739021 44.11471 48.948385 -136.114044 170.102075 -21.862507 -115.917488
-7.767499999999999 65.73780000000001 -160.9523 3.617986 57.886487 4.386855 -4.906569 14.63436 1.04424 7.922083 -11.217566 -19.949075 -15.258958 33.601292 -82.761553 41.162818 10.713582 22.716307 0.002758 0.0 0.003915 0.002964 -0.0 -0.001353 -159.22101 -48.724997 170.567596 147.502118 -5.881856 -158.465064 -11.585762 -32.184759 18.912853 -1.540472 5.539665 -0.017846 -8.202056 7.848896 1.806909 -139.513938 -43.693242 114.505576 -166.821223 -43.973701 122.06266 -110.17921 48.548051 91.282725 0.047094 -0.138596 -0.02754 -1.307165 12.639654 2.167392 -0.016894 -1.323171 -0.415697 -154.991472 3.158229 171.439586 26.851926 80.01189 10.219865 -10.040784 -23.507948 -10.942711 80.165923 68.371174 -83.26103 -91.772191 -17.03061 -87.001713 177.669757 25.573643 -113.112216 -158.280674 -34.154982 -139.971281 68.482236 37.953577 -35.659936 -59.546963 -44.184255 -19.779998 173.762693 -52.872956 -119.824443 156.180349 -11.956784 -118.713089 169.089453 -33.247512 -145.374389 164.131666 -7.028858 -143.20399 145.119458 0.310576 179.224758 -11.972921 32.178533 5.354722 25.536995 -38.087929 24.59782 159.25194 55.73109 149.561135 -179.99927 75.750101 -0.000753 164.405212 23.899938 180.0 57.445618 -52.136833 85.687683 129.782972 5.257817 178.728598 0.0 -0.000459 0.000185 24.314381 -18.556556 180.0 27.594941 -65.935028 -42.729023 -104.193996 63.977089 -4.170633
-7.866099999999999 65.63940000000001 -161.0813 3.614359 57.770269 4.188258 -4.05541 9.945988 -157.682632 -4.141098 8.74766 137.953427 7.115229 37.659292 129.24949 -32.045238 31.910537 177.929321 -0.000225 -0.0 0.002643 -0.000225 -0.0 0.002643 -155.417456 -2.951441 161.718475 -66.552354 40.416366 23.455082 -51.864941 -68.71795 -115.462613 155.056007 -47.651052 134.065645 -8.203771 7.848215 1.806596 -140.459337 -45.04075 114.621218 -77.668102 43.030603 64.538074 -169.747447 -19.0405 113.85331 89.035161 -81.393335 59.760073 2.197187 2.40722 0.511675 0.004369 0.876243 0.276704 -155.473039 -0.937497 171.961127 44.702921 86.378963 -5.334242 1.506044 0.345711 -0.954496 142.974108 39.431691 -147.390134 -112.280073 -17.91455 -134.076829 6.577774 -15.316784 -33.759356 4.013353 25.26278 -1.926907 173.770763 -11.440063 -89.890166 177.041337 -13.46298 -94.157472 140.165911 2.32636 -115.877221 2.849038 21.638877 4.066274 148.31969 24.248419 -135.133249 -86.520387 -78.000704 -57.686428 0.061127 -3.510146 1.105434 -3.444981 45.222215 -8.966469 124.849586 -29.038118 122.621569 5.098891 -17.617029 8.545753 -179.995737 75.751117 -0.004398 164.875789 23.977632 -162.919853 14.55467 -63.013214 -69.204691 179.833629 -74.184427 93.631749 0.004053 -0.000865 0.002027 24.373208 -16.346642 -0.0 -28.486575 52.7448 15.084025 -92.090908 -57.334387 -14.427409
-7.8752 65.5442 -161.2113 3.736964 57.795466 4.189584 -5.141397 14.444951 -0.0 8.252892 -10.972908 -18.89626 -12.723573 26.354925 -39.910772 31.61075 -15.330849 -13.50799 -0.00298 -0.0 0.00263 -0.002826 0.0 -0.002631 -155.417375 -2.951396 161.718627 -48.682458 -7.090371 13.436738 -3.686881 -13.532316 -70.238634 164.661324 -32.561655 140.629695 -10.203637 9.66213 2.404547 77.591002 -74.464511 9.021119 73.41788 -73.572577 26.561325 74.165626 -61.447936 19.846397 68.981004 -80.155037 40.575015 2.900014 0.36889 0.212311 -71.92503 72.97401 89.77188 -159.496529 -14.881601 178.167124 -8.191939 -17.576027 -7.728198 -73.577124 -54.902681 -73.632177 82.877325 68.300138 -86.000656 104.231796 9.513489 -92.102907 -132.515872 46.4226 105.354191 41.228234 70.842687 -26.808851 5.433882 5.264764 -1.078659 -2.544746 -1.90338 -1.539829 166.822084 -43.973618 -122.062034 166.637953 -30.822692 -118.02025 160.098401 -4.900908 -142.969678 163.016081 -3.987171 -142.882096 -0.004304 1.854296 -0.583317 156.677175 -27.66029 -175.092357 1.148208 -2.914528 1.066331 -14.393496 40.933702 -8.379236 -179.999261 75.750162 -0.000506 164.365692 23.811437 -180.0 38.674974 -47.499672 -109.211015 -72.683106 -12.598763 4.687765 -179.999261 75.750162 -0.000506 -141.261572 50.995022 -31.452634 -34.36911 65.962806 -123.287233 -28.649388 34.112402 -174.666617
-7.850300000000001 65.5029 -161.2873 3.598252 57.622686 3.855569 -7.018758 13.713851 47.022096 -0.669517 -14.275173 -66.505082 3.773681 24.798333 49.277498 -26.798741 -16.535905 -114.050855 -0.003088 -0.0 0.001495 -0.002816 0.0 -0.000775 2.460021 -18.216389 -3.668567 -18.292062 -68.437381 -83.608695 -123.395376 6.850628 173.508529 19.658443 -47.0757 9.690912 -178.927425 -16.453773 89.421286 -100.533625 16.632519 41.745896 -27.608696 30.76599 20.25533 -169.712077 -20.242522 110.626563 -160.674105 -6.668072 143.243749 -128.930561 51.838634 118.0617 -145.099635 -1.521692 -178.651356 12.259179 40.994807 -4.327266 19.605295 67.707176 13.089523 1.554525 0.292924 -0.619011 82.877176 68.300467 -86.00068 178.801651 -2.377497 -102.264916 -106.800368 -64.442206 -32.730417 -170.187536 -7.674043 -146.602074 2.608542 2.554459 -0.458135 66.567171 26.887611 -61.507007 -37.217006 -57.917437 0.643182 111.542715 40.291992 -92.553041 167.376157 -28.008512 -145.268216 170.447216 -26.000607 -143.892941 69.299435 72.944602 -87.018463 60.587979 -82.244487 77.584349 152.875442 39.991316 148.060246 26.04188 -40.251856 26.81289 -0.002466 8.7e-05 -0.0 -20.743198 -46.713395 -15.697983 -50.033634 51.576772 -64.244224 85.331425 -26.704243 170.364936 179.998869 75.748938 0.001167 -141.006271 51.127387 -31.734371 -7.56495 62.533558 73.740466 -96.696668 21.683183 -9.587381
